<?xml version="1.0" encoding="UTF-8" standalone="no"?>
<!DOCTYPE svg PUBLIC "-//W3C//DTD SVG 1.1//EN"
 "http://www.w3.org/Graphics/SVG/1.1/DTD/svg11.dtd">
<!-- Generated by graphviz version 2.38.0 (20140413.2041)
 -->
<!-- Title: G Pages: 1 -->
<svg width="395pt" height="906pt"
 viewBox="0.00 0.00 395.00 906.00" xmlns="http://www.w3.org/2000/svg" xmlns:xlink="http://www.w3.org/1999/xlink">
<g id="graph0" class="graph" transform="scale(1 1) rotate(0) translate(4 902)">
<title>G</title>
<polygon fill="white" stroke="none" points="-4,4 -4,-902 391,-902 391,4 -4,4"/>
<g id="clust1" class="cluster"><title>cluster_Global</title>
<path fill="none" stroke="gray" d="M20,-8C20,-8 367,-8 367,-8 373,-8 379,-14 379,-20 379,-20 379,-878 379,-878 379,-884 373,-890 367,-890 367,-890 20,-890 20,-890 14,-890 8,-884 8,-878 8,-878 8,-20 8,-20 8,-14 14,-8 20,-8"/>
<text text-anchor="middle" x="193.5" y="-877.2" font-family="Times,serif" font-size="11.00" fill="gray">Global</text>
</g>
<!-- \\TableLister -->
<g id="node1" class="node"><title>\\TableLister</title>
<polygon fill="none" stroke="black" points="117,-835 26,-835 26,-799 117,-799 117,-835"/>
<text text-anchor="middle" x="71.5" y="-814.2" font-family="Courier,monospace" font-size="11.00">TableLister</text>
</g>
<!-- \\MySqlTableLister -->
<g id="node2" class="node"><title>\\MySqlTableLister</title>
<polygon fill="none" stroke="black" points="347.5,-862 222.5,-862 222.5,-826 347.5,-826 347.5,-862"/>
<text text-anchor="middle" x="285" y="-841.2" font-family="Courier,monospace" font-size="11.00">MySqlTableLister</text>
</g>
<!-- \\MySqlTableLister&#45;&gt;\\TableLister -->
<g id="edge1" class="edge"><title>\\MySqlTableLister&#45;&gt;\\TableLister</title>
<path fill="none" stroke="black" d="M222.257,-836.118C192.154,-832.275 156.261,-827.693 127.161,-823.978"/>
<polygon fill="none" stroke="black" points="127.535,-820.497 117.172,-822.703 126.648,-827.441 127.535,-820.497"/>
</g>
<!-- \\PgSqlTableLister -->
<g id="node3" class="node"><title>\\PgSqlTableLister</title>
<polygon fill="none" stroke="black" points="347.5,-808 222.5,-808 222.5,-772 347.5,-772 347.5,-808"/>
<text text-anchor="middle" x="285" y="-787.2" font-family="Courier,monospace" font-size="11.00">PgSqlTableLister</text>
</g>
<!-- \\PgSqlTableLister&#45;&gt;\\TableLister -->
<g id="edge2" class="edge"><title>\\PgSqlTableLister&#45;&gt;\\TableLister</title>
<path fill="none" stroke="black" d="M222.257,-797.882C192.154,-801.725 156.261,-806.307 127.161,-810.022"/>
<polygon fill="none" stroke="black" points="126.648,-806.559 117.172,-811.297 127.535,-813.503 126.648,-806.559"/>
</g>
<!-- \\TaskController -->
<g id="node4" class="node"><title>\\TaskController</title>
<polygon fill="none" stroke="black" points="340.5,-754 229.5,-754 229.5,-718 340.5,-718 340.5,-754"/>
<text text-anchor="middle" x="285" y="-733.2" font-family="Courier,monospace" font-size="11.00">TaskController</text>
</g>
<!-- \\BaseController -->
<g id="node18" class="node"><title>\\BaseController</title>
<polygon fill="none" stroke="black" points="127,-646 16,-646 16,-610 127,-610 127,-646"/>
<text text-anchor="middle" x="71.5" y="-625.2" font-family="Courier,monospace" font-size="11.00">BaseController</text>
</g>
<!-- \\TaskController&#45;&gt;\\BaseController -->
<g id="edge3" class="edge"><title>\\TaskController&#45;&gt;\\BaseController</title>
<path fill="none" stroke="black" d="M229.229,-720.937C218.998,-717.472 208.532,-713.471 199,-709 165.208,-693.151 129.66,-669.705 104.883,-652.111"/>
<polygon fill="none" stroke="black" points="106.752,-649.145 96.5884,-646.154 102.669,-654.831 106.752,-649.145"/>
</g>
<!-- \\PriorityClassController -->
<g id="node5" class="node"><title>\\PriorityClassController</title>
<polygon fill="none" stroke="black" points="371,-700 199,-700 199,-664 371,-664 371,-700"/>
<text text-anchor="middle" x="285" y="-679.2" font-family="Courier,monospace" font-size="11.00">PriorityClassController</text>
</g>
<!-- \\PriorityClassController&#45;&gt;\\BaseController -->
<g id="edge4" class="edge"><title>\\PriorityClassController&#45;&gt;\\BaseController</title>
<path fill="none" stroke="black" d="M213.28,-663.944C188.582,-657.638 161.011,-650.598 136.859,-644.432"/>
<polygon fill="none" stroke="black" points="137.643,-641.02 127.088,-641.937 135.911,-647.802 137.643,-641.02"/>
</g>
<!-- \\UserController -->
<g id="node6" class="node"><title>\\UserController</title>
<polygon fill="none" stroke="black" points="340.5,-646 229.5,-646 229.5,-610 340.5,-610 340.5,-646"/>
<text text-anchor="middle" x="285" y="-625.2" font-family="Courier,monospace" font-size="11.00">UserController</text>
</g>
<!-- \\UserController&#45;&gt;\\BaseController -->
<g id="edge5" class="edge"><title>\\UserController&#45;&gt;\\BaseController</title>
<path fill="none" stroke="black" d="M229.258,-628C201.12,-628 166.647,-628 137.2,-628"/>
<polygon fill="none" stroke="black" points="137.012,-624.5 127.012,-628 137.012,-631.5 137.012,-624.5"/>
</g>
<!-- \\TaskClassController -->
<g id="node7" class="node"><title>\\TaskClassController</title>
<polygon fill="none" stroke="black" points="357.5,-592 212.5,-592 212.5,-556 357.5,-556 357.5,-592"/>
<text text-anchor="middle" x="285" y="-571.2" font-family="Courier,monospace" font-size="11.00">TaskClassController</text>
</g>
<!-- \\TaskClassController&#45;&gt;\\BaseController -->
<g id="edge6" class="edge"><title>\\TaskClassController&#45;&gt;\\BaseController</title>
<path fill="none" stroke="black" d="M213.28,-592.056C188.582,-598.362 161.011,-605.402 136.859,-611.568"/>
<polygon fill="none" stroke="black" points="135.911,-608.198 127.088,-614.063 137.643,-614.98 135.911,-608.198"/>
</g>
<!-- \\HelloWorldController -->
<g id="node8" class="node"><title>\\HelloWorldController</title>
<polygon fill="none" stroke="black" points="361,-538 209,-538 209,-502 361,-502 361,-538"/>
<text text-anchor="middle" x="285" y="-517.2" font-family="Courier,monospace" font-size="11.00">HelloWorldController</text>
</g>
<!-- \\HelloWorldController&#45;&gt;\\BaseController -->
<g id="edge7" class="edge"><title>\\HelloWorldController&#45;&gt;\\BaseController</title>
<path fill="none" stroke="black" d="M220.623,-538.092C213.222,-540.801 205.869,-543.778 199,-547 165.208,-562.849 129.66,-586.295 104.883,-603.889"/>
<polygon fill="none" stroke="black" points="102.669,-601.169 96.5884,-609.846 106.752,-606.855 102.669,-601.169"/>
</g>
<!-- \\PriorityClass -->
<g id="node9" class="node"><title>\\PriorityClass</title>
<polygon fill="none" stroke="black" points="337,-484 233,-484 233,-448 337,-448 337,-484"/>
<text text-anchor="middle" x="285" y="-463.2" font-family="Courier,monospace" font-size="11.00">PriorityClass</text>
</g>
<!-- \\BaseModel -->
<g id="node15" class="node"><title>\\BaseModel</title>
<polygon fill="none" stroke="black" points="110,-376 33,-376 33,-340 110,-340 110,-376"/>
<text text-anchor="middle" x="71.5" y="-355.2" font-family="Courier,monospace" font-size="11.00">BaseModel</text>
</g>
<!-- \\PriorityClass&#45;&gt;\\BaseModel -->
<g id="edge8" class="edge"><title>\\PriorityClass&#45;&gt;\\BaseModel</title>
<path fill="none" stroke="black" d="M232.828,-452.137C221.474,-448.406 209.654,-443.997 199,-439 165.208,-423.151 129.66,-399.705 104.883,-382.111"/>
<polygon fill="none" stroke="black" points="106.752,-379.145 96.5884,-376.154 102.669,-384.831 106.752,-379.145"/>
</g>
<!-- \\User -->
<g id="node10" class="node"><title>\\User</title>
<polygon fill="none" stroke="black" points="312,-430 258,-430 258,-394 312,-394 312,-430"/>
<text text-anchor="middle" x="285" y="-409.2" font-family="Courier,monospace" font-size="11.00">User</text>
</g>
<!-- \\User&#45;&gt;\\BaseModel -->
<g id="edge9" class="edge"><title>\\User&#45;&gt;\\BaseModel</title>
<path fill="none" stroke="black" d="M257.641,-405.27C223.298,-396.502 162.629,-381.012 120.129,-370.161"/>
<polygon fill="none" stroke="black" points="120.836,-366.729 110.281,-367.646 119.104,-373.511 120.836,-366.729"/>
</g>
<!-- \\HelloWorld -->
<g id="node11" class="node"><title>\\HelloWorld</title>
<polygon fill="none" stroke="black" points="327,-376 243,-376 243,-340 327,-340 327,-376"/>
<text text-anchor="middle" x="285" y="-355.2" font-family="Courier,monospace" font-size="11.00">HelloWorld</text>
</g>
<!-- \\HelloWorld&#45;&gt;\\BaseModel -->
<g id="edge10" class="edge"><title>\\HelloWorld&#45;&gt;\\BaseModel</title>
<path fill="none" stroke="black" d="M242.97,-358C207.833,-358 157.206,-358 120.256,-358"/>
<polygon fill="none" stroke="black" points="120.221,-354.5 110.221,-358 120.22,-361.5 120.221,-354.5"/>
</g>
<!-- \\TaskClass -->
<g id="node12" class="node"><title>\\TaskClass</title>
<polygon fill="none" stroke="black" points="323.5,-322 246.5,-322 246.5,-286 323.5,-286 323.5,-322"/>
<text text-anchor="middle" x="285" y="-301.2" font-family="Courier,monospace" font-size="11.00">TaskClass</text>
</g>
<!-- \\TaskClass&#45;&gt;\\BaseModel -->
<g id="edge11" class="edge"><title>\\TaskClass&#45;&gt;\\BaseModel</title>
<path fill="none" stroke="black" d="M246.188,-313.654C210.958,-322.649 158.283,-336.098 120.183,-345.826"/>
<polygon fill="none" stroke="black" points="119.164,-342.473 110.341,-348.339 120.896,-349.256 119.164,-342.473"/>
</g>
<!-- \\Task -->
<g id="node13" class="node"><title>\\Task</title>
<polygon fill="none" stroke="black" points="312,-268 258,-268 258,-232 312,-232 312,-268"/>
<text text-anchor="middle" x="285" y="-247.2" font-family="Courier,monospace" font-size="11.00">Task</text>
</g>
<!-- \\Task&#45;&gt;\\BaseModel -->
<g id="edge12" class="edge"><title>\\Task&#45;&gt;\\BaseModel</title>
<path fill="none" stroke="black" d="M257.666,-256.445C240.528,-261.101 217.925,-268.124 199,-277 165.208,-292.849 129.66,-316.295 104.883,-333.889"/>
<polygon fill="none" stroke="black" points="102.669,-331.169 96.5884,-339.846 106.752,-336.855 102.669,-331.169"/>
</g>
<!-- \\DatabaseConfig -->
<g id="node14" class="node"><title>\\DatabaseConfig</title>
<polygon fill="none" stroke="black" points="340.5,-214 229.5,-214 229.5,-178 340.5,-178 340.5,-214"/>
<text text-anchor="middle" x="285" y="-193.2" font-family="Courier,monospace" font-size="11.00">DatabaseConfig</text>
</g>
<!-- \\DB -->
<g id="node16" class="node"><title>\\DB</title>
<polygon fill="none" stroke="black" points="312,-160 258,-160 258,-124 312,-124 312,-160"/>
<text text-anchor="middle" x="285" y="-139.2" font-family="Courier,monospace" font-size="11.00">DB</text>
</g>
<!-- \\View -->
<g id="node17" class="node"><title>\\View</title>
<polygon fill="none" stroke="black" points="312,-106 258,-106 258,-70 312,-70 312,-106"/>
<text text-anchor="middle" x="285" y="-85.2" font-family="Courier,monospace" font-size="11.00">View</text>
</g>
<!-- \\Redirect -->
<g id="node19" class="node"><title>\\Redirect</title>
<polygon fill="none" stroke="black" points="320.5,-52 249.5,-52 249.5,-16 320.5,-16 320.5,-52"/>
<text text-anchor="middle" x="285" y="-31.2" font-family="Courier,monospace" font-size="11.00">Redirect</text>
</g>
</g>
</svg>
