<?xml version="1.0" encoding="UTF-8" standalone="no"?>
<!DOCTYPE svg PUBLIC "-//W3C//DTD SVG 1.1//EN"
 "http://www.w3.org/Graphics/SVG/1.1/DTD/svg11.dtd">
<!-- Generated by graphviz version 2.38.0 (20140413.2041)
 -->
<!-- Title: G Pages: 1 -->
<svg width="395pt" height="906pt"
 viewBox="0.00 0.00 395.00 906.00" xmlns="http://www.w3.org/2000/svg" xmlns:xlink="http://www.w3.org/1999/xlink">
<g id="graph0" class="graph" transform="scale(1 1) rotate(0) translate(4 902)">
<title>G</title>
<polygon fill="white" stroke="none" points="-4,4 -4,-902 391,-902 391,4 -4,4"/>
<g id="clust1" class="cluster"><title>cluster_Global</title>
<path fill="none" stroke="gray" d="M20,-8C20,-8 367,-8 367,-8 373,-8 379,-14 379,-20 379,-20 379,-878 379,-878 379,-884 373,-890 367,-890 367,-890 20,-890 20,-890 14,-890 8,-884 8,-878 8,-878 8,-20 8,-20 8,-14 14,-8 20,-8"/>
<text text-anchor="middle" x="193.5" y="-877.2" font-family="Times,serif" font-size="11.00" fill="gray">Global</text>
</g>
<!-- \\PriorityClass -->
<g id="node1" class="node"><title>\\PriorityClass</title>
<polygon fill="none" stroke="black" points="337,-430 233,-430 233,-394 337,-394 337,-430"/>
<text text-anchor="middle" x="285" y="-409.2" font-family="Courier,monospace" font-size="11.00">PriorityClass</text>
</g>
<!-- \\BaseModel -->
<g id="node19" class="node"><title>\\BaseModel</title>
<polygon fill="none" stroke="black" points="110,-376 33,-376 33,-340 110,-340 110,-376"/>
<text text-anchor="middle" x="71.5" y="-355.2" font-family="Courier,monospace" font-size="11.00">BaseModel</text>
</g>
<!-- \\PriorityClass&#45;&gt;\\BaseModel -->
<g id="edge1" class="edge"><title>\\PriorityClass&#45;&gt;\\BaseModel</title>
<path fill="none" stroke="black" d="M232.802,-398.928C198.567,-390.187 153.828,-378.765 120.316,-370.208"/>
<polygon fill="none" stroke="black" points="120.856,-366.734 110.301,-367.651 119.124,-373.516 120.856,-366.734"/>
</g>
<!-- \\BaseController -->
<g id="node2" class="node"><title>\\BaseController</title>
<polygon fill="none" stroke="black" points="127,-700 16,-700 16,-664 127,-664 127,-700"/>
<text text-anchor="middle" x="71.5" y="-679.2" font-family="Courier,monospace" font-size="11.00">BaseController</text>
</g>
<!-- \\DatabaseConfig -->
<g id="node3" class="node"><title>\\DatabaseConfig</title>
<polygon fill="none" stroke="black" points="340.5,-808 229.5,-808 229.5,-772 340.5,-772 340.5,-808"/>
<text text-anchor="middle" x="285" y="-787.2" font-family="Courier,monospace" font-size="11.00">DatabaseConfig</text>
</g>
<!-- \\UserController -->
<g id="node4" class="node"><title>\\UserController</title>
<polygon fill="none" stroke="black" points="340.5,-754 229.5,-754 229.5,-718 340.5,-718 340.5,-754"/>
<text text-anchor="middle" x="285" y="-733.2" font-family="Courier,monospace" font-size="11.00">UserController</text>
</g>
<!-- \\UserController&#45;&gt;\\BaseController -->
<g id="edge2" class="edge"><title>\\UserController&#45;&gt;\\BaseController</title>
<path fill="none" stroke="black" d="M229.258,-722.023C200.997,-714.808 166.345,-705.961 136.814,-698.421"/>
<polygon fill="none" stroke="black" points="137.567,-695.001 127.012,-695.918 135.835,-701.783 137.567,-695.001"/>
</g>
<!-- \\TaskController -->
<g id="node5" class="node"><title>\\TaskController</title>
<polygon fill="none" stroke="black" points="340.5,-700 229.5,-700 229.5,-664 340.5,-664 340.5,-700"/>
<text text-anchor="middle" x="285" y="-679.2" font-family="Courier,monospace" font-size="11.00">TaskController</text>
</g>
<!-- \\TaskController&#45;&gt;\\BaseController -->
<g id="edge3" class="edge"><title>\\TaskController&#45;&gt;\\BaseController</title>
<path fill="none" stroke="black" d="M229.258,-682C201.12,-682 166.647,-682 137.2,-682"/>
<polygon fill="none" stroke="black" points="137.012,-678.5 127.012,-682 137.012,-685.5 137.012,-678.5"/>
</g>
<!-- \\TaskClassController -->
<g id="node6" class="node"><title>\\TaskClassController</title>
<polygon fill="none" stroke="black" points="357.5,-646 212.5,-646 212.5,-610 357.5,-610 357.5,-646"/>
<text text-anchor="middle" x="285" y="-625.2" font-family="Courier,monospace" font-size="11.00">TaskClassController</text>
</g>
<!-- \\TaskClassController&#45;&gt;\\BaseController -->
<g id="edge4" class="edge"><title>\\TaskClassController&#45;&gt;\\BaseController</title>
<path fill="none" stroke="black" d="M213.28,-646.056C188.582,-652.362 161.011,-659.402 136.859,-665.568"/>
<polygon fill="none" stroke="black" points="135.911,-662.198 127.088,-668.063 137.643,-668.98 135.911,-662.198"/>
</g>
<!-- \\TaskClass -->
<g id="node7" class="node"><title>\\TaskClass</title>
<polygon fill="none" stroke="black" points="323.5,-538 246.5,-538 246.5,-502 323.5,-502 323.5,-538"/>
<text text-anchor="middle" x="285" y="-517.2" font-family="Courier,monospace" font-size="11.00">TaskClass</text>
</g>
<!-- \\TaskClass&#45;&gt;\\BaseModel -->
<g id="edge5" class="edge"><title>\\TaskClass&#45;&gt;\\BaseModel</title>
<path fill="none" stroke="black" d="M246.227,-512.423C230.803,-508.235 213.275,-502.004 199,-493 153.257,-464.148 112.962,-414.847 90.7375,-384.479"/>
<polygon fill="none" stroke="black" points="93.3759,-382.153 84.6962,-376.077 87.6925,-386.24 93.3759,-382.153"/>
</g>
<!-- \\HelloWorld -->
<g id="node8" class="node"><title>\\HelloWorld</title>
<polygon fill="none" stroke="black" points="327,-376 243,-376 243,-340 327,-340 327,-376"/>
<text text-anchor="middle" x="285" y="-355.2" font-family="Courier,monospace" font-size="11.00">HelloWorld</text>
</g>
<!-- \\HelloWorld&#45;&gt;\\BaseModel -->
<g id="edge6" class="edge"><title>\\HelloWorld&#45;&gt;\\BaseModel</title>
<path fill="none" stroke="black" d="M242.97,-358C207.833,-358 157.206,-358 120.256,-358"/>
<polygon fill="none" stroke="black" points="120.221,-354.5 110.221,-358 120.22,-361.5 120.221,-354.5"/>
</g>
<!-- \\DB -->
<g id="node9" class="node"><title>\\DB</title>
<polygon fill="none" stroke="black" points="312,-484 258,-484 258,-448 312,-448 312,-484"/>
<text text-anchor="middle" x="285" y="-463.2" font-family="Courier,monospace" font-size="11.00">DB</text>
</g>
<!-- \\User -->
<g id="node10" class="node"><title>\\User</title>
<polygon fill="none" stroke="black" points="312,-322 258,-322 258,-286 312,-286 312,-322"/>
<text text-anchor="middle" x="285" y="-301.2" font-family="Courier,monospace" font-size="11.00">User</text>
</g>
<!-- \\User&#45;&gt;\\BaseModel -->
<g id="edge7" class="edge"><title>\\User&#45;&gt;\\BaseModel</title>
<path fill="none" stroke="black" d="M257.641,-310.73C223.298,-319.498 162.629,-334.988 120.129,-345.839"/>
<polygon fill="none" stroke="black" points="119.104,-342.489 110.281,-348.354 120.836,-349.271 119.104,-342.489"/>
</g>
<!-- \\HelloWorldController -->
<g id="node11" class="node"><title>\\HelloWorldController</title>
<polygon fill="none" stroke="black" points="361,-592 209,-592 209,-556 361,-556 361,-592"/>
<text text-anchor="middle" x="285" y="-571.2" font-family="Courier,monospace" font-size="11.00">HelloWorldController</text>
</g>
<!-- \\HelloWorldController&#45;&gt;\\BaseController -->
<g id="edge8" class="edge"><title>\\HelloWorldController&#45;&gt;\\BaseController</title>
<path fill="none" stroke="black" d="M220.623,-592.092C213.222,-594.801 205.869,-597.778 199,-601 165.208,-616.849 129.66,-640.295 104.883,-657.889"/>
<polygon fill="none" stroke="black" points="102.669,-655.169 96.5884,-663.846 106.752,-660.855 102.669,-655.169"/>
</g>
<!-- \\Task -->
<g id="node12" class="node"><title>\\Task</title>
<polygon fill="none" stroke="black" points="312,-268 258,-268 258,-232 312,-232 312,-268"/>
<text text-anchor="middle" x="285" y="-247.2" font-family="Courier,monospace" font-size="11.00">Task</text>
</g>
<!-- \\Task&#45;&gt;\\BaseModel -->
<g id="edge9" class="edge"><title>\\Task&#45;&gt;\\BaseModel</title>
<path fill="none" stroke="black" d="M257.666,-256.445C240.528,-261.101 217.925,-268.124 199,-277 165.208,-292.849 129.66,-316.295 104.883,-333.889"/>
<polygon fill="none" stroke="black" points="102.669,-331.169 96.5884,-339.846 106.752,-336.855 102.669,-331.169"/>
</g>
<!-- \\PriorityClassController -->
<g id="node13" class="node"><title>\\PriorityClassController</title>
<polygon fill="none" stroke="black" points="371,-862 199,-862 199,-826 371,-826 371,-862"/>
<text text-anchor="middle" x="285" y="-841.2" font-family="Courier,monospace" font-size="11.00">PriorityClassController</text>
</g>
<!-- \\PriorityClassController&#45;&gt;\\BaseController -->
<g id="edge10" class="edge"><title>\\PriorityClassController&#45;&gt;\\BaseController</title>
<path fill="none" stroke="black" d="M215.765,-825.828C209.915,-823.235 204.238,-820.304 199,-817 153.257,-788.148 112.962,-738.847 90.7375,-708.479"/>
<polygon fill="none" stroke="black" points="93.3759,-706.153 84.6962,-700.077 87.6925,-710.24 93.3759,-706.153"/>
</g>
<!-- \\Redirect -->
<g id="node14" class="node"><title>\\Redirect</title>
<polygon fill="none" stroke="black" points="320.5,-214 249.5,-214 249.5,-178 320.5,-178 320.5,-214"/>
<text text-anchor="middle" x="285" y="-193.2" font-family="Courier,monospace" font-size="11.00">Redirect</text>
</g>
<!-- \\TableLister -->
<g id="node15" class="node"><title>\\TableLister</title>
<polygon fill="none" stroke="black" points="117,-133 26,-133 26,-97 117,-97 117,-133"/>
<text text-anchor="middle" x="71.5" y="-112.2" font-family="Courier,monospace" font-size="11.00">TableLister</text>
</g>
<!-- \\MySqlTableLister -->
<g id="node16" class="node"><title>\\MySqlTableLister</title>
<polygon fill="none" stroke="black" points="347.5,-160 222.5,-160 222.5,-124 347.5,-124 347.5,-160"/>
<text text-anchor="middle" x="285" y="-139.2" font-family="Courier,monospace" font-size="11.00">MySqlTableLister</text>
</g>
<!-- \\MySqlTableLister&#45;&gt;\\TableLister -->
<g id="edge11" class="edge"><title>\\MySqlTableLister&#45;&gt;\\TableLister</title>
<path fill="none" stroke="black" d="M222.257,-134.118C192.154,-130.275 156.261,-125.693 127.161,-121.978"/>
<polygon fill="none" stroke="black" points="127.535,-118.497 117.172,-120.703 126.648,-125.441 127.535,-118.497"/>
</g>
<!-- \\PgSqlTableLister -->
<g id="node17" class="node"><title>\\PgSqlTableLister</title>
<polygon fill="none" stroke="black" points="347.5,-106 222.5,-106 222.5,-70 347.5,-70 347.5,-106"/>
<text text-anchor="middle" x="285" y="-85.2" font-family="Courier,monospace" font-size="11.00">PgSqlTableLister</text>
</g>
<!-- \\PgSqlTableLister&#45;&gt;\\TableLister -->
<g id="edge12" class="edge"><title>\\PgSqlTableLister&#45;&gt;\\TableLister</title>
<path fill="none" stroke="black" d="M222.257,-95.8821C192.154,-99.725 156.261,-104.307 127.161,-108.022"/>
<polygon fill="none" stroke="black" points="126.648,-104.559 117.172,-109.297 127.535,-111.503 126.648,-104.559"/>
</g>
<!-- \\View -->
<g id="node18" class="node"><title>\\View</title>
<polygon fill="none" stroke="black" points="312,-52 258,-52 258,-16 312,-16 312,-52"/>
<text text-anchor="middle" x="285" y="-31.2" font-family="Courier,monospace" font-size="11.00">View</text>
</g>
</g>
</svg>
